<svg width="32" height="32" viewBox="0 0 32 32" fill="none" xmlns="http://www.w3.org/2000/svg">
<path fill-rule="evenodd" clip-rule="evenodd" d="M20.387 5L22.388 9.288L30 9.2881V27H2V9.2881L9.61 9.288L11.613 5H20.387ZM19.112 7H12.886L10.887 11.2881L4 11.288V25H28V11.288L21.113 11.2881L19.112 7ZM16 11.5996C19.3137 11.5996 22 14.2859 22 17.5996C22 20.9134 19.3137 23.5996 16 23.5996C12.6863 23.5996 10 20.9134 10 17.5996C10 14.2859 12.6863 11.5996 16 11.5996ZM16 13.5996C13.7909 13.5996 12 15.3905 12 17.5996C12 19.8088 13.7909 21.5996 16 21.5996C18.2091 21.5996 20 19.8088 20 17.5996C20 15.3905 18.2091 13.5996 16 13.5996ZM26 13.6396V15.6396H24V13.6396H26Z" fill="#00000A"/>
</svg>
