<svg width="32" height="32" viewBox="0 0 32 32" fill="none" xmlns="http://www.w3.org/2000/svg">
<path fill-rule="evenodd" clip-rule="evenodd" d="M26 11H30V13H28V15C28 16.3059 27.1656 17.4169 26.0009 17.829L26 22H17V25H21C22.5977 25 23.9037 26.2489 23.9949 27.8237L24 28V29H22V28C22 27.4872 21.614 27.0645 21.1166 27.0067L21 27H11L10.8834 27.0067C10.386 27.0645 10 27.4872 10 28V29H8V28L8.00509 27.8237C8.09634 26.2489 9.40232 25 11 25H15V22H6L6.00009 17.8293C4.83485 17.4175 4 16.3063 4 15L3.999 13H2V11H6V13V15L6.00673 15.1166C6.06449 15.614 6.48716 16 7 16H8V6C8 3.79086 9.79086 2 12 2H20C22.2091 2 24 3.79086 24 6V16H25C25.5128 16 25.9355 15.614 25.9933 15.1166L26 15V11ZM24 18H8V20H24V18ZM20 4H12C10.8954 4 10 4.89543 10 6V16H22V6C22 4.89543 21.1046 4 20 4Z" fill="#00000A"/>
</svg>
