<svg width="32" height="32" viewBox="0 0 32 32" fill="none" xmlns="http://www.w3.org/2000/svg">
<path fill-rule="evenodd" clip-rule="evenodd" d="M21 2V13H24C26.6888 13 28.8818 15.1223 28.9954 17.7831L29 18V29H27V21H13V26C13 27.5977 11.7511 28.9037 10.1763 28.9949L10 29H8V27H10C10.5128 27 10.9355 26.614 10.9933 26.1166L11 26V18C11 15.3112 13.1223 13.1182 15.7831 13.0046L16 13H19V2H21ZM17 23V29H15V23H17ZM21 23V29H19V23H21ZM25 23V29H23V23H25ZM24 15H16C14.4023 15 13.0963 16.2489 13.0051 17.8237L13 18V19H27V18C27 16.4023 25.7511 15.0963 24.1763 15.0051L24 15ZM8 5C8 7.55198 9.56761 9 12 9V11C9.56761 11 8 12.448 8 15H6C6 12.448 4.43239 11 2 11V9C4.43239 9 6 7.55198 6 5H8ZM7 8.557L6.96778 8.60696C6.61864 9.11514 6.18913 9.55043 5.69201 9.90495L5.553 10L5.69201 10.095C6.18913 10.4496 6.61864 10.8849 6.96778 11.393L7 11.442L7.03222 11.393C7.38136 10.8849 7.81087 10.4496 8.30799 10.095L8.446 10L8.30799 9.90495C7.81087 9.55043 7.38136 9.11514 7.03222 8.60696L7 8.557Z" fill="#00000A"/>
</svg>
