<svg width="32" height="32" viewBox="0 0 32 32" fill="none" xmlns="http://www.w3.org/2000/svg">
<path fill-rule="evenodd" clip-rule="evenodd" d="M16.0001 21.9996C17.1046 21.9996 18.0001 22.895 18.0001 23.9996C18.0001 25.1042 17.1046 25.9996 16.0001 25.9996C14.8955 25.9996 14.0001 25.1042 14.0001 23.9996C14.0001 22.895 14.8955 21.9996 16.0001 21.9996ZM16.0001 16.5C18.2612 16.5 20.3033 17.4381 21.7583 18.9464L20.319 20.335C19.2277 19.2037 17.6961 18.5 16.0001 18.5C14.3035 18.5 12.7715 19.2041 11.6802 20.336L10.2409 18.9474C11.6959 17.4385 13.7384 16.5 16.0001 16.5ZM16.0001 11C19.8284 11 23.2978 12.5366 25.8252 15.0267L24.3845 16.4151C22.2214 14.3021 19.2628 13 16.0001 13C12.7373 13 9.77873 14.3021 7.61559 16.4151L6.17527 15.0264C8.70265 12.5365 12.1719 11 16.0001 11ZM16.0001 5.5C21.3709 5.5 26.2212 7.72845 29.6769 11.3112L28.2379 12.7002C25.146 9.49418 20.8059 7.5 16.0001 7.5C11.1947 7.5 6.85506 9.49377 3.76316 12.6992L2.32227 11.3122C5.778 7.72887 10.6287 5.5 16.0001 5.5Z" fill="#00000A"/>
</svg>
