<svg width="32" height="32" viewBox="0 0 32 32" fill="none" xmlns="http://www.w3.org/2000/svg">
<path fill-rule="evenodd" clip-rule="evenodd" d="M6.41431 4L10.7629 8.34863L15.7741 4.46117C17.0882 3.44176 19 4.37829 19 6.04142V16.5857L22.1422 19.7278C23.0416 18.6786 23.585 17.3152 23.585 15.8248C23.585 14.1283 22.8809 12.5962 21.749 11.5049L23.1377 10.0656C24.6465 11.5206 25.585 13.5631 25.585 15.8248C25.585 17.8675 24.8194 19.7314 23.5595 21.1452L25.5311 23.1168C27.0797 21.0957 28 18.5677 28 15.8248C28 12.5621 26.6979 9.6035 24.5849 7.44036L25.9736 6.00004C28.4635 8.52742 30 11.9967 30 15.8248C30 19.1204 28.8613 22.15 26.9559 24.5416L29.0417 26.6274L27.7346 27.9345L5.10718 5.30713L6.41431 4ZM7.69794 10.7263L7.3451 11H2V21.5H7.36232L15.8237 27.6537C17.1456 28.6151 19 27.6708 19 26.0363V22.0284L17 20.0284V26.0363L8.01268 19.5H4V13H8.0299L9.12338 12.1518L7.69794 10.7263ZM12.1884 9.77407L17 14.5857V6.04142L12.1884 9.77407Z" fill="#00000A"/>
</svg>
