<svg width="32" height="32" viewBox="0 0 32 32" fill="none" xmlns="http://www.w3.org/2000/svg">
<path fill-rule="evenodd" clip-rule="evenodd" d="M26 15V18C26 20.5261 24.8292 22.7787 23.0006 24.2449L23 29H9L9.00039 24.2457C7.17124 22.7796 6 20.5266 6 18V15H26ZM23.999 16.999H7.999L8 18C8 19.7542 8.75527 21.3806 10.0434 22.5108L10.2512 22.6851L11.0005 23.2856L10.999 27H21L21.0007 23.2849L21.7495 22.6845C23.0927 21.6075 23.9149 20.0152 23.9938 18.2758L24 18L23.999 16.999Z" fill="#00000A"/>
<path fill-rule="evenodd" clip-rule="evenodd" d="M21 3C22.6569 3 24 4.34315 24 6V13H8V6C8 4.34315 9.34315 3 11 3H21ZM21 5H11C10.4872 5 10.0645 5.38604 10.0067 5.88338L10 6V11H22V6C22 5.48716 21.614 5.06449 21.1166 5.00673L21 5Z" fill="#00000A"/>
<path fill-rule="evenodd" clip-rule="evenodd" d="M26 13L6 13V11L26 11V13Z" fill="#00000A"/>
</svg>
