<svg width="32" height="32" viewBox="0 0 32 32" fill="none" xmlns="http://www.w3.org/2000/svg">
<path fill-rule="evenodd" clip-rule="evenodd" d="M18.5 2C20.3686 2 21.8951 3.46428 21.9948 5.30796L22 5.5V7H20V5.5C20 4.67157 19.3284 4 18.5 4C17.7203 4 17.0796 4.59489 17.0069 5.35554L17 5.5V12H15V5.5C15 3.567 16.567 2 18.5 2ZM23 10V12H21V10H23ZM11 10V12H9V10H11Z" fill="#00000A"/>
<path d="M22 19L23 30H9L10 19H22ZM20.173 21H11.826L11.189 28H20.81L20.173 21Z" fill="#00000A"/>
<path d="M28 12V15C28 18.3137 25.3137 21 22 21H10C6.68629 21 4 18.3137 4 15V12H28ZM26 14H6V15C6 17.1422 7.68397 18.8911 9.80036 18.9951L10 19H22C24.1422 19 25.8911 17.316 25.9951 15.1996L26 15V14Z" fill="#00000A"/>
</svg>
