<svg width="320" height="249" viewBox="0 0 320 249" fill="none" xmlns="http://www.w3.org/2000/svg">
<path d="M97.6593 54.8125V45.5625L115.972 16.75H131.034V45.5H136.284V54.8125H131.034V62H119.659V54.8125H97.6593ZM109.409 45.5H119.909V29.125H119.534L109.409 45.1875V45.5ZM163.532 62.625C151.344 62.625 143.813 54.2188 143.782 39.375C143.813 24.5 151.344 16.125 163.532 16.125C175.719 16.125 183.282 24.5625 183.282 39.375C183.282 54.2812 175.719 62.625 163.532 62.625ZM156.094 39.375C156.063 48.9688 159.157 53.0312 163.532 53.0625C167.907 53.0312 171.001 48.9688 170.969 39.375C170.938 29.9688 167.907 25.7188 163.532 25.6875C159.157 25.7188 156.157 29.9688 156.094 39.375ZM191.217 54.8125V45.5625L209.529 16.75H224.592V45.5H229.842V54.8125H224.592V62H213.217V54.8125H191.217ZM202.967 45.5H213.467V29.125H213.092L202.967 45.1875V45.5Z" fill="#00A7D9"/>
<path d="M126.519 125.731C129.857 133.604 154.776 131.317 165.468 128.327C187.081 126.41 186.643 144.421 186.766 159.523C186.889 174.625 136.127 186.07 115.636 182.169C97.8298 178.779 99.5421 171.857 69.9206 167.434C40.4179 163.029 31.1799 147.995 39.282 137.475C48.5189 125.481 56.4973 126.886 65.2791 128.558C76.9883 130.787 84.7507 122.006 97.5815 118.418C102.574 117.022 122.347 115.89 126.519 125.731Z" fill="#00A7D9" stroke="#33333B" stroke-width="2"/>
<mask id="path-3-outside-1_1182_2995" maskUnits="userSpaceOnUse" x="130.842" y="82.4873" width="158.264" height="130.714" fill="black">
<rect fill="white" x="130.842" y="82.4873" width="158.264" height="130.714"/>
<path fill-rule="evenodd" clip-rule="evenodd" d="M160.489 183.542C159.532 183.493 158.585 183.348 157.652 183.101C144.187 179.534 138.828 156.135 145.684 130.839C152.54 105.542 169.014 87.9272 182.479 91.4944C183.69 91.8151 184.835 92.2961 185.911 92.9243L265.821 122.903L265.813 122.932C275.477 126.535 278.965 144.9 273.564 164.83C267.993 185.387 255.075 199.826 244.71 197.08C244.609 197.053 244.509 197.025 244.41 196.995L160.489 183.542Z"/>
</mask>
<path fill-rule="evenodd" clip-rule="evenodd" d="M160.489 183.542C159.532 183.493 158.585 183.348 157.652 183.101C144.187 179.534 138.828 156.135 145.684 130.839C152.54 105.542 169.014 87.9272 182.479 91.4944C183.69 91.8151 184.835 92.2961 185.911 92.9243L265.821 122.903L265.813 122.932C275.477 126.535 278.965 144.9 273.564 164.83C267.993 185.387 255.075 199.826 244.71 197.08C244.609 197.053 244.509 197.025 244.41 196.995L160.489 183.542Z" fill="#F2F4F6"/>
<path d="M157.652 183.101L158.174 181.17L158.174 181.17L157.652 183.101ZM160.489 183.542L160.814 181.569L160.707 181.552L160.598 181.547L160.489 183.542ZM145.684 130.839L143.751 130.325L143.751 130.325L145.684 130.839ZM182.479 91.4944L181.958 93.4253L181.958 93.4253L182.479 91.4944ZM185.911 92.9243L184.895 94.6497L185.041 94.735L185.2 94.7945L185.911 92.9243ZM265.821 122.903L267.753 123.417L268.228 121.669L266.532 121.033L265.821 122.903ZM265.813 122.932L263.88 122.418L263.405 124.17L265.105 124.804L265.813 122.932ZM273.564 164.83L275.497 165.345L275.497 165.345L273.564 164.83ZM244.71 197.08L244.189 199.011L244.189 199.011L244.71 197.08ZM244.41 196.995L244.991 195.082L244.865 195.044L244.735 195.023L244.41 196.995ZM157.131 185.032C158.201 185.315 159.286 185.482 160.379 185.537L160.598 181.547C159.778 181.505 158.969 181.381 158.174 181.17L157.131 185.032ZM143.751 130.325C140.255 143.224 139.843 155.735 142.096 165.571C144.326 175.31 149.333 182.966 157.131 185.032L158.174 181.17C152.507 179.669 148.101 173.842 146 164.666C143.921 155.586 144.257 143.749 147.617 131.353L143.751 130.325ZM183.001 89.5635C175.203 87.4979 166.997 91.6522 160.142 98.983C153.218 106.387 147.247 117.425 143.751 130.325L147.617 131.353C150.977 118.956 156.671 108.538 163.064 101.702C169.526 94.7933 176.29 91.9236 181.958 93.4253L183.001 89.5635ZM186.928 91.1989C185.701 90.483 184.39 89.9315 183.001 89.5635L181.958 93.4253C182.99 93.6987 183.969 94.1092 184.895 94.6497L186.928 91.1989ZM185.2 94.7945L265.109 124.773L266.532 121.033L186.623 91.0541L185.2 94.7945ZM263.888 122.389L263.88 122.418L267.745 123.447L267.753 123.417L263.888 122.389ZM275.497 165.345C278.26 155.148 278.776 145.266 277.306 137.385C275.859 129.624 272.349 123.234 266.52 121.061L265.105 124.804C268.94 126.234 272.007 130.827 273.369 138.132C274.709 145.316 274.269 154.583 271.631 164.316L275.497 165.345ZM244.189 199.011C250.49 200.68 257.042 197.038 262.426 191.021C267.897 184.906 272.647 175.86 275.497 165.345L271.631 164.316C268.91 174.358 264.415 182.809 259.443 188.367C254.384 194.021 249.294 196.226 245.231 195.149L244.189 199.011ZM243.828 198.909C243.948 198.945 244.068 198.979 244.189 199.011L245.231 195.149C245.151 195.128 245.071 195.105 244.991 195.082L243.828 198.909ZM244.735 195.023L160.814 181.569L160.163 185.514L244.084 198.968L244.735 195.023Z" fill="#33333B" mask="url(#path-3-outside-1_1182_2995)"/>
<path d="M270.532 164.036C267.936 173.637 263.634 181.761 258.824 187.138C253.971 192.564 248.834 194.966 244.492 193.814C240.151 192.661 236.914 188.036 235.449 180.932C233.998 173.892 234.371 164.726 236.967 155.124C239.564 145.523 243.866 137.399 248.676 132.022C253.529 126.596 258.666 124.193 263.008 125.346C267.349 126.499 270.586 131.124 272.05 138.227C273.502 145.268 273.129 154.434 270.532 164.036Z" fill="#00A7D9" stroke="#33333B" stroke-width="2"/>
</svg>
