<svg width="64" height="64" viewBox="0 0 64 64" fill="none" xmlns="http://www.w3.org/2000/svg">
<rect width="64" height="64" fill="#F2F4F6"/>
<path d="M13 23C13 21.3431 14.3431 20 16 20H48C49.6569 20 51 21.3431 51 23V46H13V23Z" fill="#00A7D9" stroke="black" stroke-width="2"/>
<path d="M8 46H56V49.5858L51.5858 54H12.4142L8 49.5858V46Z" fill="#00A7D9" stroke="black" stroke-width="2"/>
<path d="M24 28H40V35C40 37.7614 37.7614 40 35 40H29C26.2386 40 24 37.7614 24 35V28Z" fill="#F2F4F6" stroke="black" stroke-width="2"/>
<path d="M40 29H42C43.1046 29 44 29.8954 44 31V33C44 34.1046 43.1046 35 42 35H40V29Z" stroke="black" stroke-width="2"/>
<circle cx="24" cy="13" r="2" fill="#00000A"/>
<circle cx="32" cy="13" r="2" fill="#00000A"/>
<circle cx="40" cy="13" r="2" fill="#00000A"/>
</svg>
