<svg width="16" height="16" viewBox="0 0 16 16" fill="none" xmlns="http://www.w3.org/2000/svg">
<g clip-path="url(#clip0_59_3192)">
<path d="M3.96996 2.28992L6.55996 4.87992L5.24996 6.18992L4.53996 6.89992L5.24996 7.60992L8.21996 10.5799L8.92996 11.2899L9.63996 10.5799L11.03 9.18992L13.77 11.9299L11.95 13.7499C10.8 13.6199 7.49996 13.0299 5.10996 10.6399C2.81996 8.34992 2.24996 5.11992 2.11996 3.94992L3.97996 2.29992M4.01996 0.929922L1.07996 3.51992C1.07996 3.51992 1.23996 8.16992 4.40996 11.3299C7.66996 14.5899 12.34 14.7699 12.34 14.7699L15.19 11.9199L11.03 7.75992L8.92996 9.85992L5.95996 6.88992L7.97996 4.86992L4.01996 0.919922V0.929922Z" fill="#00000A"/>
</g>
<defs>
<clipPath id="clip0_59_3192">
<rect width="16" height="16" fill="white"/>
</clipPath>
</defs>
</svg>
