<svg width="16" height="16" viewBox="0 0 16 16" fill="none" xmlns="http://www.w3.org/2000/svg">
<g clip-path="url(#clip0_59_3191)">
<path d="M8.12 1.12988C10.88 1.12988 13.12 3.36988 13.12 6.12988C13.12 8.02988 10.3 11.8499 8.12 14.3199C5.94 11.8599 3.12 8.02988 3.12 6.12988C3.12 3.36988 5.36 1.12988 8.12 1.12988ZM8.12 0.129883C4.8 0.129883 2.12 2.80988 2.12 6.12988C2.12 9.44988 8.12 15.7999 8.12 15.7999C8.12 15.7999 14.12 9.43988 14.12 6.12988C14.12 2.81988 11.43 0.129883 8.12 0.129883Z" fill="#00000A"/>
<path d="M8.12 5.21001C8.7 5.21001 9.17 5.68001 9.17 6.26001C9.17 6.84001 8.7 7.31001 8.12 7.31001C7.54 7.31001 7.07 6.84001 7.07 6.26001C7.07 5.68001 7.54 5.21001 8.12 5.21001ZM8.12 4.26001C7.02 4.26001 6.12 5.16001 6.12 6.26001C6.12 7.36001 7.02 8.26001 8.12 8.26001C9.22 8.26001 10.12 7.36001 10.12 6.26001C10.12 5.16001 9.22 4.26001 8.12 4.26001Z" fill="#00000A"/>
</g>
<defs>
<clipPath id="clip0_59_3191">
<rect width="16" height="16" fill="white"/>
</clipPath>
</defs>
</svg>
