<svg width="16" height="16" viewBox="0 0 16 16" fill="none" xmlns="http://www.w3.org/2000/svg">
<path fill-rule="evenodd" clip-rule="evenodd" d="M11.2426 2.75736C13.4665 4.98123 13.5797 8.51649 11.5823 10.8739L15.1317 14.4246L14.4246 15.1317L10.8746 11.5816C8.51726 13.5797 4.98147 13.4667 2.75736 11.2426C0.414214 8.89949 0.414214 5.10051 2.75736 2.75736C5.10051 0.414214 8.89949 0.414214 11.2426 2.75736ZM10.5355 3.46447C8.58291 1.51184 5.41709 1.51184 3.46447 3.46447C1.51184 5.41709 1.51184 8.58291 3.46447 10.5355C5.2497 12.3208 8.07021 12.4838 10.0401 10.9705L10.2281 10.8188L10.548 10.547L10.8193 10.2274C12.4403 8.31431 12.3836 5.49022 10.7032 3.64038L10.5355 3.46447Z" fill="#00000A"/>
</svg>
