<svg width="28" height="28" viewBox="0 0 28 28" fill="none" xmlns="http://www.w3.org/2000/svg">
<path d="M24 6V24H4V6H24ZM22 8H6V22H22V8Z" fill="#00000A"/>
<path d="M20 4V7H18V4H20Z" fill="#00000A"/>
<path d="M10 4V7H8V4H10Z" fill="#00000A"/>
<path d="M11 12V14H9V12H11Z" fill="#00000A"/>
<path d="M11 16V18H9V16H11Z" fill="#00000A"/>
<path d="M19 12V14H17V12H19Z" fill="#00000A"/>
<path d="M15 12V14H13V12H15Z" fill="#00000A"/>
<path d="M19 16V18H17V16H19Z" fill="#00000A"/>
<path d="M15 16V18H13V16H15Z" fill="#00000A"/>
</svg>
