<svg width="28" height="28" viewBox="0 0 28 28" fill="none" xmlns="http://www.w3.org/2000/svg">
<g clip-path="url(#clip0_270_5208)">
<g clip-path="url(#clip1_270_5208)">
<path fill-rule="evenodd" clip-rule="evenodd" d="M13.9726 5.13477C8.41818 5.13477 3.91577 8.6934 3.91577 13.0857C3.91577 15.9436 5.82232 18.4483 8.68593 19.8497C8.47515 20.634 7.92445 22.6943 7.81431 23.1349C7.67759 23.6818 8.0137 23.6742 8.23588 23.528C8.36316 23.4427 9.79781 22.4672 10.9903 21.6564L12.1059 20.8979C12.7117 20.9872 13.3346 21.0347 13.9726 21.0347C19.527 21.0347 24.0294 17.476 24.0294 13.0857C24.0294 8.6953 19.527 5.13477 13.9726 5.13477ZM6.95566 11.6216H7.99059C7.99059 11.6216 7.99629 14.4643 7.99059 15.1271C7.99059 15.6113 9.06729 15.617 9.0654 15.1347L9.06919 11.6596C9.06919 11.6596 9.4167 11.6615 10.0984 11.6615C10.7422 11.6615 10.7422 10.6493 10.0984 10.6493C9.37303 10.6493 6.94997 10.6284 6.94997 10.6284C6.3423 10.6284 6.3442 11.6216 6.94997 11.6216H6.95566ZM12.4856 13.6078L11.9102 11.8038L11.2855 13.6078H12.4856ZM10.5307 12.8962C10.8351 12.064 11.1356 11.2428 11.2646 10.9588H11.2627C11.3633 10.7366 11.6007 10.6473 11.8438 10.6473C12.1381 10.6473 12.4419 10.7784 12.5255 10.9588C12.6558 11.2355 13.1977 12.7005 13.6065 13.8055L13.6065 13.8055C13.7755 14.2623 13.9217 14.6576 14.0067 14.882C14.2099 15.4194 13.2262 15.7916 13.023 15.2542C12.7724 14.5915 12.8369 14.5611 12.8369 14.5611H10.9437L10.7367 15.2846C10.5164 15.7916 9.56503 15.3776 9.78531 14.8706C9.93507 14.5243 10.2348 13.7051 10.5307 12.8962ZM14.3711 11.124C14.3711 12.0241 14.3768 14.9257 14.3768 14.9257C14.3768 14.9257 14.2933 15.503 14.7889 15.503C15.0377 15.503 15.4378 15.5015 15.836 15.5001L15.837 15.5001H15.8371C16.2318 15.4987 16.6245 15.4973 16.8664 15.4973C17.3525 15.4973 17.3506 14.4623 16.8645 14.4623C16.3783 14.4623 15.4896 14.4566 15.4896 14.4566C15.4896 14.4566 15.4934 11.7734 15.4915 11.1202C15.4915 10.805 15.2105 10.6473 14.9313 10.6473C14.6522 10.6473 14.3692 10.8069 14.3711 11.1221V11.124ZM17.4719 14.5002C17.4783 13.3677 17.4901 11.2784 17.4815 10.9816H17.4796C17.4739 10.7632 17.7531 10.6512 18.0265 10.6512C18.2829 10.6512 18.5316 10.7499 18.5373 10.9531C18.5506 11.4886 18.5373 12.4571 18.5373 12.4571C18.5373 12.4571 20.0793 10.9132 20.2977 10.6967C20.5236 10.4708 21.2243 11.1772 20.9984 11.4013C20.611 11.7867 19.6273 12.8501 19.6273 12.8501L21.0762 14.7586C21.3516 15.1213 20.4837 15.7802 20.2084 15.4156L18.8431 13.5547L18.5316 13.8053V15.2105C18.5316 15.6264 17.4682 15.6283 17.4682 15.2105C17.4682 15.1449 17.4697 14.8749 17.4719 14.5002Z" fill="#00000A"/>
</g>
</g>
<defs>
<clipPath id="clip0_270_5208">
<rect width="28" height="28" fill="white"/>
</clipPath>
<clipPath id="clip1_270_5208">
<rect width="28" height="28" fill="white"/>
</clipPath>
</defs>
</svg>
