<svg width="28" height="28" viewBox="0 0 28 28" fill="none" xmlns="http://www.w3.org/2000/svg">
<path fill-rule="evenodd" clip-rule="evenodd" d="M7.87868 19.9497C6.70711 18.7782 6.70711 16.8787 7.87868 15.7071L10.7071 12.8787C11.8787 11.7071 13.7782 11.7071 14.9497 12.8787C15.3211 13.25 15.5747 13.6945 15.7107 14.1657L17.254 12.6702C17.0255 12.2365 16.7288 11.8293 16.364 11.4645C14.4113 9.51184 11.2455 9.51184 9.29289 11.4645L6.46447 14.2929C4.51184 16.2455 4.51184 19.4113 6.46447 21.364C8.41709 23.3166 11.5829 23.3166 13.5355 21.364L14.9067 19.9928L13.4924 18.5786L12.1213 19.9497C10.9497 21.1213 9.05025 21.1213 7.87868 19.9497Z" fill="black"/>
<path fill-rule="evenodd" clip-rule="evenodd" d="M14.4213 9.16436L15.7069 7.87868C16.8785 6.70711 18.778 6.70711 19.9496 7.87868C21.1212 9.05025 21.1212 10.9497 19.9496 12.1213L17.1212 14.9497C15.9496 16.1213 14.0501 16.1213 12.8785 14.9497C12.4699 14.5411 12.2038 14.0439 12.0802 13.5199L10.5293 15.0707C10.7634 15.5372 11.075 15.9747 11.4643 16.364C13.4169 18.3166 16.5828 18.3166 18.5354 16.364L21.3638 13.5355C23.3164 11.5829 23.3164 8.41709 21.3638 6.46447C19.4112 4.51184 16.2454 4.51184 14.2927 6.46447L13.0069 7.75027L14.4213 9.16436Z" fill="black"/>
</svg>
