<svg width="28" height="28" viewBox="0 0 28 28" fill="none" xmlns="http://www.w3.org/2000/svg">
<path d="M23 5H24V4H23V5ZM4 5V4H3V5H4ZM23 19V20H24V19H23ZM11.2 19V18H10.9409L10.7144 18.1258L11.2 19ZM4 23H3V24.6995L4.48564 23.8742L4 23ZM23 4H4V6H23V4ZM24 19V5H22V19H24ZM11.2 20H23V18H11.2V20ZM10.7144 18.1258L3.51436 22.1258L4.48564 23.8742L11.6856 19.8742L10.7144 18.1258ZM5 23V19H3V23H5ZM5 19V18H3V19H5ZM3 5V18H5V5H3Z" fill="black"/>
<circle cx="10" cy="12" r="1" fill="#00000A"/>
<circle cx="14" cy="12" r="1" fill="#00000A"/>
<circle cx="18" cy="12" r="1" fill="#00000A"/>
</svg>
