<svg width="28" height="28" viewBox="0 0 28 28" fill="none" xmlns="http://www.w3.org/2000/svg">
<path d="M16.1202 19.0253L11.9212 16.7353C10.7994 17.9346 9.05857 18.3264 7.53113 17.7233C6.00369 17.1203 5 15.645 5 14.0028C5 12.3606 6.00369 10.8853 7.53113 10.2822C9.05857 9.67921 10.7994 10.071 11.9212 11.2703L16.1212 8.98028C15.6279 7.02736 16.6637 5.01225 18.5389 4.27679C20.4141 3.54132 22.5436 4.31495 23.5095 6.08255C24.4754 7.85014 23.9762 10.0602 22.3444 11.2411C20.7126 12.422 18.4573 12.2053 17.0802 10.7353L12.8802 13.0253C13.0414 13.6666 13.0414 14.3379 12.8802 14.9793L17.0792 17.2693C18.4563 15.7993 20.7116 15.5826 22.3434 16.7635C23.9752 17.9444 24.4744 20.1544 23.5085 21.922C22.5426 23.6896 20.4131 24.4633 18.5379 23.7278C16.6627 22.9923 15.6269 20.9772 16.1202 19.0243V19.0253ZM9.00021 16.0023C10.1048 16.0023 11.0002 15.1069 11.0002 14.0023C11.0002 12.8977 10.1048 12.0023 9.00021 12.0023C7.89564 12.0023 7.00021 12.8977 7.00021 14.0023C7.00021 15.1069 7.89564 16.0023 9.00021 16.0023ZM20.0002 10.0023C21.1048 10.0023 22.0002 9.10685 22.0002 8.00229C22.0002 6.89772 21.1048 6.00228 20.0002 6.00228C18.8956 6.00228 18.0002 6.89772 18.0002 8.00229C18.0002 9.10685 18.8956 10.0023 20.0002 10.0023ZM20.0002 22.0023C21.1048 22.0023 22.0002 21.1069 22.0002 20.0023C22.0002 18.8977 21.1048 18.0023 20.0002 18.0023C18.8956 18.0023 18.0002 18.8977 18.0002 20.0023C18.0002 21.1069 18.8956 22.0023 20.0002 22.0023Z" fill="#111111"/>
</svg>
